<svg width="18" height="18" xmlns="http://www.w3.org/2000/svg"><g fill="none" fill-rule="evenodd"><circle fill="#F26622" cx="9" cy="9" r="9"/><path d="M7.86 5.813c0-.109.008-.174.196-.174h2.5c.436 0 .677.37.852 1.065l.14.557h.428C12.054 5.687 12.12 5 12.12 5s-1.07.122-1.704.122H7.213L5.5 5.065v.457l.577.108c.402.079.502.166.533.53 0 0 .035 1.088.035 2.88 0 1.79-.035 2.869-.035 2.869 0 .326-.131.443-.533.521l-.577.113V13l1.713-.052h2.862c.647 0 2.141.052 2.141.052.035-.391.25-2.16.284-2.357h-.402l-.428.966c-.337.76-.83.817-1.377.817H8.668c-.546 0-.808-.217-.808-.687V9.261s1.214 0 1.608.035c.305.021.489.108.59.53l.13.565h.468l-.035-1.421.066-1.435h-.468l-.153.63c-.1.409-.166.487-.59.53-.559.053-1.616.044-1.616.044V5.813z" fill="#FFF" fill-rule="nonzero"/></g></svg>